<svg id="Capa_1" data-name="Capa 1" xmlns="http://www.w3.org/2000/svg" viewBox="0 0 413.42 114.82"><defs><style>.cls-1{fill:#feb22a;}.cls-2{fill:#ff451c;}.cls-3{font-size:46px;font-family:Raleway-ExtraBold, Raleway;font-weight:800;letter-spacing:0.09em;}.cls-3,.cls-7{fill:#212121;}.cls-4,.cls-6{letter-spacing:0.09em;}.cls-5,.cls-6,.cls-7{font-family:Raleway-Regular, Raleway;}.cls-5,.cls-6{font-weight:400;}.cls-5{letter-spacing:0.07em;}.cls-7{font-size:16px;letter-spacing:0.4em;}.cls-8{letter-spacing:0.35em;}.cls-9{letter-spacing:0.4em;}</style></defs><title>logonelson</title><path class="cls-1" d="M835.53,548.71a4.46,4.46,0,0,1-1.36-3.27V529a14.94,14.94,0,0,0-3.36-9.82,11.22,11.22,0,0,0-9.11-4.07v9.26a4.64,4.64,0,0,1,4.63,4.63v54.5a4.64,4.64,0,0,1-4.63,4.64H797.26v9.26h25.15a11,11,0,0,0,8.64-4.3,15.21,15.21,0,0,0,3.12-9.6V563.92a4.36,4.36,0,0,1,1.36-3.25c.9-.9,7.94-1.34,9.22-1.34v-9.26C843.47,550.07,836.43,549.61,835.53,548.71Z" transform="translate(-739.79 -482.54)"/><path class="cls-1" d="M758.2,529a4.64,4.64,0,0,1,4.63-4.63h24.34v-9.26H762.83a11.19,11.19,0,0,0-9.1,4.07,15,15,0,0,0-3.37,9.82v16.48a4.49,4.49,0,0,1-1.35,3.27c-.91.9-8,1.36-9.22,1.36v9.26c1.27,0,8.31.44,9.22,1.34a4.39,4.39,0,0,1,1.35,3.25v19.54a15.21,15.21,0,0,0,3.12,9.6,11,11,0,0,0,8.64,4.3h25V588.1H762.83a4.64,4.64,0,0,1-4.63-4.64Z" transform="translate(-739.79 -482.54)"/><path class="cls-2" d="M808.49,540s3.63-15.42-4.54-25.7a26.25,26.25,0,0,1-3.65-5.9c-3-6.92-6.61-20.6,8.19-25.84,0,0-33.93,3.75-11,33.39a55.35,55.35,0,0,1,7.9,13.59A60.65,60.65,0,0,1,808.49,540Z" transform="translate(-739.79 -482.54)"/><path class="cls-2" d="M810.83,524.44s3.38-9.6-1.13-16.74a16.72,16.72,0,0,1-1.93-4c-1.43-4.62-2.81-13.62,7-15.95,0,0-21.94.06-9.34,20.58a36.18,36.18,0,0,1,4.11,9.23A38.11,38.11,0,0,1,810.83,524.44Z" transform="translate(-739.79 -482.54)"/><path class="cls-1" d="M23,60H81.44a0,0,0,0,1,0,0V91.13a9.33,9.33,0,0,1-9.33,9.33H32.37A9.33,9.33,0,0,1,23,91.13V60A0,0,0,0,1,23,60Z"/><text class="cls-3" transform="translate(111.52 88.15)">N<tspan class="cls-4" x="38.82" y="0">elson </tspan><tspan class="cls-5" x="197.29" y="0">w</tspan><tspan class="cls-6" x="238.05" y="0">eb</tspan></text><text class="cls-7" transform="translate(187.92 104.39)">DEVE<tspan class="cls-8" x="67.39" y="0">L</tspan><tspan class="cls-9" x="82.4" y="0">OPER</tspan></text></svg>